<?xml version="1.0" encoding="UTF-8"?>
<svg version="1.1" xmlns="http://www.w3.org/2000/svg" width="36" height="36">
<path d="M0 0 C5.44229509 1.20050627 8.95202127 2.06205829 12.625 6.453125 C15.20409691 12.6429576 14.82069387 18.8321489 14.625 25.453125 C13.635 25.453125 12.645 25.453125 11.625 25.453125 C11.315625 26.4225 11.00625 27.391875 10.6875 28.390625 C9.625 31.453125 9.625 31.453125 8.625 32.453125 C6.29202567 32.49405437 3.95794775 32.49554223 1.625 32.453125 C1.33625 31.81375 1.0475 31.174375 0.75 30.515625 C-0.20323451 28.30106421 -0.20323451 28.30106421 -2.375 27.453125 C-3.365 29.928125 -3.365 29.928125 -4.375 32.453125 C-9.6548183 32.78311364 -14.85593376 32.4970018 -19.375 29.453125 C-22.13824881 24.88658719 -21.77874274 19.62923877 -21.8125 14.453125 C-21.84537109 13.56367188 -21.87824219 12.67421875 -21.91210938 11.7578125 C-21.94864536 7.3070654 -21.82178799 5.0964997 -19.2265625 1.359375 C-13.44924557 -2.50272179 -6.5844838 -1.06693025 0 0 Z M-14.375 24.453125 C-13.375 26.453125 -13.375 26.453125 -13.375 26.453125 Z " fill="#965A40" transform="translate(21.375,3.546875)"/>
<path d="M0 0 C1.68996094 0.03287109 1.68996094 0.03287109 3.4140625 0.06640625 C6.375 0.4375 6.375 0.4375 9.375 2.4375 C10.6188276 6.1689828 11.0393142 9.56841732 10.375 13.4375 C8.41482364 16.96430379 6.26800657 19.13983114 2.375 20.4375 C0.98060336 20.50415376 -0.41669875 20.52288199 -1.8125 20.5 C-3.6996875 20.4690625 -3.6996875 20.4690625 -5.625 20.4375 C-4.88140327 25.98803286 -4.88140327 25.98803286 -3.625 31.4375 C-6 31.5625 -6 31.5625 -8.625 31.4375 C-12.79507937 27.26742063 -11.91216519 21.0615402 -12 15.5 C-12.03738281 14.60603516 -12.07476562 13.71207031 -12.11328125 12.79101562 C-12.17272559 8.34259779 -12.07197773 6.09472281 -9.515625 2.3359375 C-6.03965804 0.05307272 -4.12605425 -0.14702032 0 0 Z " fill="#935338" transform="translate(11.625,2.5625)"/>
<path d="M0 0 C0.33 0 0.66 0 1 0 C1.43395539 4.33955391 1.25919797 6.54849386 -0.9375 10.375 C-3.89353804 13.58734191 -6.99736569 13.78616798 -11.20703125 13.9921875 C-12.09455078 13.99605469 -12.09455078 13.99605469 -13 14 C-13 13.01 -13 12.02 -13 11 C-11.7625 10.938125 -10.525 10.87625 -9.25 10.8125 C-5.91025888 10.39281572 -5.15134744 10.13970533 -2.5625 7.75 C-1.03855454 5.067856 -0.3481833 3.0466039 0 0 Z " fill="#6E3721" transform="translate(21,9)"/>
</svg>
